<svg version="1.1" xmlns="http://www.w3.org/2000/svg" xmlns:xlink="http://www.w3.org/1999/xlink" width="184.5022" height="98.62138" viewBox="0,0,184.5022,98.62138"><g transform="translate(-145.10131,-173.87396)"><g data-paper-data="{&quot;isPaintingLayer&quot;:true}" fill="#9966ff" fill-rule="nonzero" stroke="none" stroke-width="0.5" stroke-linecap="butt" stroke-linejoin="miter" stroke-miterlimit="10" stroke-dasharray="" stroke-dashoffset="0" style="mix-blend-mode: normal"><path d="M234.83926,205.93107c-1.92999,0 -2.37004,-1.48995 -2.47037,-2.16937c-0.48693,-0.00732 -0.9717,-0.00695 -1.45388,0.00151c-1.27774,0.77609 -2.54648,1.63543 -4.00192,1.85346c-2.37811,0.35625 -5.29253,0.93922 -7.19428,-0.5324c-0.10475,-0.08106 -0.20114,-0.16782 -0.28988,-0.25976c-3.39009,0.5369 -6.77772,1.24889 -10.1115,2.07419l-2.75014,2.61909l-0.09214,0.70166c-1.11643,8.14077 0.91512,15.57585 6.83135,21.49895c8.11137,5.52319 17.42174,6.64816 26.94009,8.22426c7.36246,1.21912 14.83795,2.37912 22.31954,2.44917c6.51078,0.06096 15.61238,-3.22566 15.76511,-10.97746c0.06828,-3.46559 -2.00647,-7.04139 -3.49148,-9.95062c-5.05734,-7.14174 -12.8472,-11.17148 -21.15333,-13.77067c-5.15694,-1.61373 -10.84319,-3.01894 -16.43765,-3.62236c-0.18305,0.74071 -0.73646,1.86036 -2.40952,1.86036zM232.76347,203.83124c-0.00426,-0.02026 -0.00784,-0.04102 -0.01086,-0.0622c-0.01881,-0.00044 -0.03762,-0.00086 -0.05643,-0.00128zM218.11574,198.80906c-0.1737,-0.89333 -0.28996,-1.80514 -0.31256,-2.71647c-0.79348,1.67427 -2.17566,3.15184 -3.19079,4.51339c1.21429,-0.23794 2.43141,-0.45727 3.64928,-0.65538c-0.03195,-0.39405 -0.0753,-0.77831 -0.14593,-1.14154zM203.81909,202.89311l0.01304,0.00591l0.00856,-0.05231c0.66659,-1.32444 1.28473,-2.67456 1.98169,-3.9829c-1.92387,1.77181 -4.33389,3.26401 -6.74755,4.48357c-0.09411,0.44367 -0.19039,0.87883 -0.28287,1.30062c1.60447,-0.49205 3.23265,-0.97027 4.87882,-1.42755zM193.45665,205.77881c0,0 -2.34774,0.85913 -3.20687,-1.48861c-0.85913,-2.34774 1.48861,-3.20687 1.48861,-3.20687c1.08535,-0.38951 2.0611,-0.82922 2.96927,-1.3073c0.05349,-0.87099 0.06101,-1.70753 0.01122,-2.48058c-0.01112,-0.1726 -0.11763,-0.22142 -0.27542,-0.19786c-0.35233,0.95374 -1.26967,1.63372 -2.34584,1.63372c-0.22194,0 -0.43712,-0.02892 -0.64198,-0.0832c-0.47598,0.26052 -0.95085,0.52313 -1.42834,0.78078l0.06622,0.29505c0,0 -1.50649,1.99512 -3.50161,0.48863c-0.89303,-0.67432 -1.0845,-1.44653 -1.02354,-2.09391c-3.91567,1.65769 -7.53715,3.78372 -11.36834,5.79628c-4.57438,2.40296 -9.87825,4.786 -14.14371,8.08642c4.71313,2.08395 8.78888,2.63754 12.00694,7.77832c0.92247,1.47362 1.25189,3.24388 1.87783,4.86581l0.39499,2.83789c0,0 0.27793,2.4845 -2.20657,2.76243c-2.4845,0.27793 -2.76243,-2.20657 -2.76243,-2.20657l-0.10492,-1.63094c-0.49296,-1.34791 -0.7501,-2.80729 -1.47887,-4.04372c-2.56026,-4.34368 -7.18469,-4.49414 -11.29092,-6.51546c0,0 -0.13574,-0.06741 -0.32378,-0.20247c-0.51799,0.58027 -1.00303,1.18906 -1.35902,1.87393c-0.63851,1.22839 -1.08865,2.57241 -1.32346,3.93678c-1.71917,9.98907 10.21057,11.10855 17.09973,9.88255c7.58838,-3.5871 13.58298,-9.15218 18.22326,-16.07491c1.31127,-1.95625 3.24242,-3.60159 3.97809,-5.8388c0.36903,-1.12225 0.7288,-2.41981 1.03751,-3.78558c-0.12391,0.04695 -0.24663,0.09302 -0.36805,0.13819zM203.81456,193.6921c1.96857,-1.22822 3.80923,-3.74511 6.0971,-3.3585c2.70304,0.45676 3.48594,1.91577 3.39816,3.61068c0.17421,-0.23007 0.28998,-0.37787 0.32795,-0.4162c1.42498,-1.43853 2.74075,-3.6983 4.76437,-3.76834c4.38672,-0.15183 4.50312,6.13628 4.66622,8.36264c0.02698,0.36825 -0.07045,0.77619 -0.17587,1.18238c2.20283,-0.2538 4.39937,-0.42721 6.57718,-0.5048c0.14193,-0.06045 0.2858,-0.11641 0.43207,-0.1668c1.37174,-0.47264 2.90963,-1.25463 4.28165,-0.78284c0.55226,0.1899 0.96054,0.59151 1.31486,1.07246c4.96404,0.39935 9.98494,1.47218 14.71252,2.63923c11.31638,2.79356 22.05086,7.69437 28.90543,17.31096c1.9488,3.8254 4.37773,8.16651 4.21304,12.68332c-0.33898,9.29699 -8.5539,14.13012 -16.78534,15.54438c-3.66474,0.62965 -7.60677,0.41046 -11.46717,-0.02559c0.00543,0.29188 -0.02949,0.48842 -0.02949,0.48842c-1.20702,6.60886 -0.04204,13.36341 1.11338,19.94573l0.13746,0.78507c0,0 0.43117,2.46254 -2.03137,2.89371c-2.46254,0.43117 -2.89371,-2.03137 -2.89371,-2.03137l-0.13746,-0.78507c-1.25879,-7.20685 -2.36686,-14.44041 -1.1112,-21.68272c0,0 0.01686,-0.0949 0.06259,-0.24412c-0.54992,-0.07469 -1.09471,-0.14821 -1.63321,-0.21851c-9.70202,-1.26665 -19.79014,-2.3027 -28.91847,-5.77386c-0.12539,1.22504 -1.30849,1.89654 -1.30849,1.89654c-0.9603,0.49692 -2.19041,0.6587 -2.88091,1.49076c-1.78268,2.14813 -2.24202,5.11394 -3.28548,7.70307c-2.21263,5.49017 -3.92696,11.16092 -5.72513,16.79389l-0.6928,2.34035c0,0 -0.71016,2.39701 -3.10718,1.68685c-2.39701,-0.71016 -1.68685,-3.10718 -1.68685,-3.10718l0.72363,-2.44054c2.27839,-7.13729 4.47574,-14.27845 7.60697,-21.10056c0.80421,-1.75216 1.21095,-3.76666 2.46197,-5.23354c0.84016,-0.98513 2.11461,-1.45829 3.29705,-2.03993c-1.69067,-0.8459 -3.33701,-1.79951 -4.92935,-2.87997c-7.16922,-7.30369 -9.86042,-15.94203 -8.59097,-25.99364l0.07172,-0.54616c-0.8383,0.25146 -1.67021,0.50732 -2.49482,0.76649c0,0 -0.59022,0.18513 -1.27558,0.07763c-0.11156,0.49799 -0.24412,0.99019 -0.41216,1.47254c-0.88297,2.53444 -2.94919,4.48501 -4.4462,6.71255c-5.32787,7.92784 -12.15493,13.97559 -20.84316,18.04805c-8.78637,1.66951 -21.45845,0.68477 -23.46422,-10.3351c-0.13587,-0.74646 -0.22732,-1.50826 -0.26187,-2.27203l-0.538,0.05344c0,0 -2.48776,0.24709 -2.73485,-2.24067c-0.24709,-2.48776 2.24067,-2.73485 2.24067,-2.73485l1.72776,-0.17161c0.34168,-1.116 0.78776,-2.20266 1.31415,-3.23731c2.58475,-5.0805 7.96603,-8.02816 12.6372,-10.78082c6.39907,-3.77089 12.98664,-7.75354 19.9113,-10.62546c-3.25407,-2.48685 -5.62462,-5.70917 -8.33602,-9.41281l-1.71758,-2.19345c-0.34113,-0.42737 -0.54505,-0.96907 -0.54505,-1.55841c0,-1.38071 1.11929,-2.5 2.5,-2.5c0.61198,0 1.1726,0.21989 1.60717,0.58498l3.83862,3.17731l-0.00782,0.00945c0.02088,0.01235 0.04174,0.02475 0.06257,0.0372c3.22063,1.92573 6.35109,5.5258 9.22543,8.47513c0.31275,-0.92438 0.71611,-1.83683 1.01455,-2.7516c1.0599,-3.24882 2.69978,-7.29961 4.94297,-9.93556c1.17254,-1.37784 2.06019,-3.92247 3.86591,-3.80979c6.94098,0.43312 5.21437,5.85091 3.99949,9.17277c-1.23604,3.3797 -2.51258,4.00759 -4.49731,6.90712c-0.67263,0.98266 -1.31759,1.9918 -1.98876,2.98014c1.57565,0.81904 2.34898,2.13782 2.65224,3.68757c1.31628,-0.95395 2.67108,-1.94891 4.2485,-2.93308z"/><path d="M181.59917,207.40336c0,-1.38071 1.11929,-2.5 2.5,-2.5c1.38071,0 2.5,1.11929 2.5,2.5c0,1.38071 -1.11929,2.5 -2.5,2.5c-1.38071,0 -2.5,-1.11929 -2.5,-2.5z"/><path d="M156.35413,222.05115c0,-1.38071 1.11929,-2.5 2.5,-2.5c1.38071,0 2.5,1.11929 2.5,2.5c0,1.38071 -1.11929,2.5 -2.5,2.5c-1.38071,0 -2.5,-1.11929 -2.5,-2.5z"/><path d="M224.09451,262.02736c-2.48779,-0.24679 -2.241,-2.73458 -2.241,-2.73458l0.3617,-3.62481c0.36231,-1.85832 0.33038,-3.83939 1.08694,-5.57497c0.73989,-1.69735 2.19548,-2.98222 3.29322,-4.47333c0,0 1.50649,-1.99511 3.50161,-0.48862c1.99511,1.50649 0.48862,3.50161 0.48862,3.50161c-0.90188,1.15708 -2.11237,2.12951 -2.70565,3.47125c-0.58247,1.31728 -0.47575,2.84106 -0.71363,4.26159l-0.33723,3.42087c0,0 -0.24679,2.48779 -2.73458,2.241z"/><path d="M270.4877,268.40712c-2.41259,0.6553 -3.06789,-1.75729 -3.06789,-1.75729l-1.20176,-4.42446c-0.88689,-3.26873 -1.66633,-6.56852 -2.33579,-9.88861c0,0 -0.49348,-2.45081 1.95733,-2.94429c2.45081,-0.49348 2.94429,1.95733 2.94429,1.95733c0.64577,3.21179 1.39973,6.4037 2.25934,9.56498l1.20176,4.42446c0,0 0.6553,2.41259 -1.75729,3.06789z"/><path d="M329.44718,236.48343c-0.77758,2.376 -3.15358,1.59842 -3.15358,1.59842l-4.59947,-1.50524c-6.29017,-2.06218 -12.74723,-3.36358 -19.17188,-4.94871c-5.96979,-1.4729 -11.92571,-3.32095 -18.021,-4.11919c0,0 -2.47836,-0.32822 -2.15014,-2.80658c0.32822,-2.47836 2.80658,-2.15014 2.80658,-2.15014c6.28356,0.84068 12.40647,2.7026 18.5623,4.22149c6.54691,1.61538 13.11667,2.95605 19.52929,5.05113l4.59947,1.50524c0,0 2.376,0.77758 1.59842,3.15358z"/></g></g></svg>